<?xml version="1.0" encoding="UTF-8" standalone="no"?>
<svg
   xmlns:dc="http://purl.org/dc/elements/1.1/"
   xmlns:cc="http://creativecommons.org/ns#"
   xmlns:rdf="http://www.w3.org/1999/02/22-rdf-syntax-ns#"
   xmlns:svg="http://www.w3.org/2000/svg"
   xmlns="http://www.w3.org/2000/svg"
   xmlns:sodipodi="http://sodipodi.sourceforge.net/DTD/sodipodi-0.dtd"
   xmlns:inkscape="http://www.inkscape.org/namespaces/inkscape"
   version="1.1"
   id="svg10"
   width="500"
   height="500"
   viewBox="0 0 500 500"
   sodipodi:docname="AppLogo Vectorial.svg"
   inkscape:version="1.0.2-2 (e86c870879, 2021-01-15)">
  <metadata
     id="metadata16">
    <rdf:RDF>
      <cc:Work
         rdf:about="">
        <dc:format>image/svg+xml</dc:format>
        <dc:type
           rdf:resource="http://purl.org/dc/dcmitype/StillImage" />
        <dc:title></dc:title>
      </cc:Work>
    </rdf:RDF>
  </metadata>
  <defs
     id="defs14" />
  <sodipodi:namedview
     pagecolor="#ffffff"
     bordercolor="#666666"
     borderopacity="1"
     objecttolerance="10"
     gridtolerance="10"
     guidetolerance="10"
     inkscape:pageopacity="0"
     inkscape:pageshadow="2"
     inkscape:window-width="1920"
     inkscape:window-height="1002"
     id="namedview12"
     showgrid="false"
     inkscape:zoom="1.578"
     inkscape:cx="250"
     inkscape:cy="250"
     inkscape:window-x="-8"
     inkscape:window-y="-8"
     inkscape:window-maximized="1"
     inkscape:current-layer="g18" />
  <g
     inkscape:groupmode="layer"
     inkscape:label="Image"
     id="g18">
    <path
       style="fill:#000000;stroke-width:1.09377"
       d="M 221.89477,480.08993 C 219.39224,479.30737 199.21165,468.0561 177.04878,455.08708 154.88589,442.11827 110.91172,416.49182 79.328005,398.13956 -3.7964655,349.83853 0.02713793,352.69265 0.02713793,338.9461 c 0,-6.37097 0.38905564,-7.34484 8.05469327,-20.16481 8.0546918,-13.47032 8.0546918,-13.47032 11.7584068,-12.86929 2.892511,0.46922 3.703705,0.2245 3.703705,-1.11755 0,-8.35373 7.998926,-18.86814 16.502978,-21.6926 4.028751,-1.33805 5.352731,-2.27207 4.898731,-3.45509 -4.118178,-10.73166 -1.146613,-22.07338 11.492378,-43.86338 13.991285,-24.12109 15.409988,-25.75294 77.5609,-89.20258 21.10929,-21.55035 27.14851,-25.00058 36.74349,-20.99149 7.95602,3.32439 7.24438,2.29243 47.17272,68.39919 19.65083,32.53478 56.63534,93.65497 84.18904,139.1298 6.8156,11.24851 12.39194,21.07399 12.39194,21.83463 0,0.76064 -3.53732,7.55419 -7.86096,15.09683 -16.22206,28.30111 -19.84587,32.57924 -32.12562,37.92893 l -6.7301,2.93206 0.52442,7.32741 c 0.77935,10.89396 -1.72325,16.40544 -10.13859,22.3283 -2.17051,1.52742 -2.16766,1.56082 0.3591,4.25065 2.91611,3.10405 2.99686,2.85131 -5.64912,17.70065 -10.60832,18.22012 -17.11251,21.90927 -30.98048,17.57217 z m 14.83701,-12.47533 c 2.16291,-2.3103 5.54058,-7.18721 7.50595,-10.83742 l 3.57363,-6.63667 -59.15241,-34.46399 -59.1524,-34.46376 -5.05927,2.23785 c -16.62792,7.35541 -32.184817,-2.0661 -34.702115,-21.01612 L 89.091318,357.51253 59.325602,340.26205 C 42.95445,330.77415 27.567097,321.82253 25.131485,320.36943 l -4.428422,-2.64228 -5.063302,8.44904 c -8.6829851,14.48928 -8.0732534,17.69481 4.878373,25.64797 20.897601,12.83271 200.930906,117.25264 204.286006,118.48686 5.97908,2.19925 7.71122,1.80765 11.92764,-2.69642 z m 16.05871,-35.88595 c 7.74227,-5.07281 7.56453,-20.07281 -0.23798,-20.07281 -13.47923,0 -37.28573,-12.57153 -42.64227,-22.51797 -1.91747,-3.56037 -2.29273,-3.73336 -8.09487,-3.73336 -12.88431,0 -27.50018,-5.74826 -36.38087,-14.30799 l -5.41915,-5.22357 -8.89669,4.44822 c -9.92902,4.96418 -10.50193,5.35427 -8.77826,5.97525 0.66694,0.24011 23.06257,13.20325 49.76825,28.80681 52.32313,30.57132 53.72254,31.18534 60.68184,26.62542 z m 16.07483,-32.58294 c 4.4346,-1.582 11.70316,-6.15443 11.71529,-7.36975 0.004,-0.40587 -4.31188,-3.20984 -9.59141,-6.23111 -5.27927,-3.02121 -10.7794,-6.74976 -12.22234,-8.28566 l -2.62377,-2.7927 2.56906,-2.73468 c 3.41626,-3.63657 3.1319,-3.70324 16.74237,3.91872 6.53422,3.65926 12.03513,6.48937 12.22409,6.2893 0.18923,-0.20005 3.55609,-5.90115 7.48248,-12.66905 l 7.13855,-12.30526 -7.30087,-4.30298 C 261.17147,332.72534 76.371118,225.49227 75.590821,225.34776 c -0.932379,-0.1728 -14.857503,22.843 -14.857503,24.55685 0,0.42602 2.091912,1.95741 4.648676,3.40269 27.38573,15.48073 155.094586,90.33525 156.961016,92.00012 2.9253,2.60925 3.11182,4.75101 0.65084,7.47011 -2.51197,2.77576 -3.14905,2.63282 -12.8153,-2.87575 l -8.55641,-4.87625 -15.88927,7.95873 -15.88907,7.95879 4.2367,3.33463 c 9.42115,7.4152 20.54498,10.88215 31.43119,9.79572 7.82942,-0.78129 8.42366,-0.50156 11.39672,5.36425 7.91491,15.61717 34.81876,25.82227 51.95691,19.70806 z M 236.84775,365.1832 c -2.05767,-2.47916 -0.45105,-6.97186 2.78336,-7.78373 4.89518,-1.22863 9.11133,4.7229 5.73665,8.09774 -1.82799,1.82776 -6.89746,1.64097 -8.52001,-0.31401 z m -83.79179,-7.87217 c 18.70658,-9.34598 34.64992,-17.51012 35.42958,-18.14233 1.08251,-0.87762 -0.083,-1.96989 -4.92194,-4.61604 -3.48719,-1.9066 -13.72326,-7.79681 -22.74699,-13.08944 -38.22265,-22.41828 -63.076778,-36.68888 -63.898639,-36.68888 -0.48373,0 -0.709947,1.10743 -0.502663,2.46102 0.207258,1.35362 1.130774,18.21195 2.052238,37.46292 2.184194,45.63085 2.257654,46.0067 9.655474,49.30262 5.61663,2.50249 9.1309,1.19716 44.93294,-16.68987 z M 88.061707,333.17519 c -0.01993,-12.60553 -0.0066,-12.57784 -7.448645,-15.51115 -9.269792,-3.65384 -16.622325,-8.9569 -24.95185,-17.99655 l -7.765578,-8.42782 -4.533319,1.81395 c -9.369211,3.7488 -11.929472,13.6859 -5.325445,20.66964 2.990985,3.16291 46.735217,29.87516 49.221226,30.0566 0.4512,0.0331 0.812823,-4.7391 0.803611,-10.60467 z m 203.331643,2.73466 c -0.71706,-1.35361 -9.52698,-15.99687 -19.57792,-32.54071 -10.05094,-16.54394 -36.17679,-59.61239 -58.05712,-95.70794 -37.57022,-61.97848 -45.35771,-73.83205 -48.50632,-73.83205 -3.42297,0 -12.7036,8.25786 -32.21958,28.66827 -11.67148,12.20662 -28.05431,29.14943 -36.405728,37.65076 l -15.184655,15.45702 4.138574,2.45741 c 2.276203,1.35157 48.929959,28.54027 103.674889,60.41929 54.74492,31.87935 100.0039,58.39562 100.57523,58.92565 1.96523,1.82169 2.86446,0.95997 1.56263,-1.4977 z m -55.114,-46.77093 c -3.9865,-4.40513 2.78761,-11.01933 7.19771,-7.02803 2.3806,2.15427 2.76241,5.94816 0.79674,7.9137 -1.99147,1.99159 -5.76939,1.57291 -7.99445,-0.88567 z m -33.13259,-19.8966 c -4.05548,-4.05548 1.36851,-11.90552 6.15559,-8.90914 2.26202,1.41593 2.98732,6.5266 1.22729,8.64707 -1.58845,1.91413 -5.58891,2.05604 -7.38288,0.26207 z m -45.49763,-22.92021 c -1.89453,-2.70476 -0.86589,-5.62173 2.64551,-7.50092 4.59687,-2.46013 8.9255,2.79815 5.9904,7.27723 -2.13668,3.2612 -6.43047,3.37238 -8.63591,0.22369 z m 28.55049,-14.89502 c -2.32664,-2.57072 -2.37688,-5.05144 -0.14745,-7.28076 3.54367,-3.5437 9.26121,-1.08849 9.20249,3.95174 -0.0509,4.35112 -6.11311,6.57988 -9.05504,3.32902 z m -60.11149,-2.52434 c -2.1988,-1.28071 -2.56882,-6.4768 -0.6016,-8.44404 4.27236,-4.27236 11.4125,1.81319 8.08553,6.89092 -1.89355,2.88951 -4.32346,3.39383 -7.48393,1.55312 z m 51.06785,-32.8013 c -3.95214,-4.36717 3.22745,-11.31391 7.78439,-7.53183 2.18767,1.81546 1.97767,5.81433 -0.41962,7.98396 -2.67162,2.41774 -4.89108,2.28132 -7.36477,-0.45213 z m -50.13051,-0.5617 c -1.29336,-3.37026 -0.63087,-5.89763 1.99738,-7.61952 5.02715,-3.29418 10.56826,2.81708 6.56514,7.2406 -2.31658,2.56001 -7.63515,2.79541 -8.56252,0.37892 z m 29.5299,-23.59644 c -1.89453,-2.70489 -0.8659,-5.6216 2.64551,-7.50095 4.40452,-2.35725 9.027,3.01876 6.55993,7.6289 -1.63834,3.06099 -7.02425,2.98637 -9.20544,-0.12795 z M 86.440691,296.5327 c -1.154578,-20.09662 -1.015072,-19.63278 -6.832232,-22.71331 -2.822286,-1.49477 -9.476802,-5.28338 -14.787788,-8.41918 -6.14515,-3.62841 -9.802652,-5.21943 -10.058629,-4.37532 -4.474184,14.75355 5.753071,33.78209 23.263764,43.28373 9.298526,5.04554 9.158903,5.17442 8.414885,-7.77592 z m 282.470119,62.15359 c -7.03293,-2.50976 -10.99563,-6.49649 -21.38479,-21.51341 -10.54357,-15.24043 -11.49914,-17.64351 -7.80249,-19.62173 3.11232,-1.66579 4.02868,-0.74186 14.30989,14.42735 9.60453,14.17092 13.23625,17.82937 19.30442,19.44656 7.97143,2.12463 6.08488,3.00497 54.91405,-25.63 20.75499,-12.17142 41.26572,-24.16427 45.57937,-26.65063 10.80961,-6.2305 14.11996,-9.26428 16.2794,-14.91856 2.62007,-6.86078 1.35572,-10.93129 -11.42751,-36.78503 l -10.68905,-21.61853 -9.20655,5.20531 c -5.06359,2.86306 -36.1835,21.07097 -69.15557,40.46198 -32.97181,19.39102 -61.63246,36.05938 -63.69019,37.0405 -4.73376,2.25746 -5.40369,1.71155 -14.8153,-12.07495 -3.7695,-5.52213 -15.29989,-22.34528 -25.62256,-37.38512 -37.46733,-54.58798 -34.45102,-49.60931 -31.71404,-52.34646 2.2811,-2.28105 2.54516,-1.67736 -6.67576,-15.25516 -9.71147,-14.29987 -8.85412,-13.71984 -14.974,-10.13351 -8.03561,4.70929 -8.38401,4.48394 -17.58854,-11.3839 -10.76494,-18.55768 -11.34272,-22.01993 -4.86515,-29.14523 2.08706,-2.2957 2.07905,-2.48334 -0.74979,-17.302 -1.57267,-8.23962 -2.95297,-17.74825 -3.06678,-21.13031 l -0.20727,-6.149196 9.29734,-5.212846 c 10.57894,-5.931495 11.87771,-6.199091 14.60863,-3.009813 2.63995,3.083297 -0.11976,6.143063 -9.22675,10.230019 -3.56176,1.598395 -6.46832,3.247726 -6.45925,3.665186 0.009,0.41746 1.0228,6.17336 2.25229,12.79087 1.2298,6.61756 2.51464,13.61606 2.85546,15.55218 l 0.61987,3.52052 5.05811,-2.91196 C 243.84387,119.80919 368.24435,46.612134 371.1091,44.682922 l 3.56324,-2.39973 -7.83584,-6.964034 -7.83569,-6.964036 -55.88676,28.129854 c -30.73795,15.47142 -56.76415,28.128321 -57.83645,28.126457 -2.07806,-0.0033 -4.13127,-3.999697 -3.2479,-6.321327 0.57045,-1.498753 115.22182,-59.323971 117.55582,-59.290091 0.76861,0.01116 6.42608,4.220361 12.57219,9.353795 10.83438,9.049271 11.30081,9.308607 15.3132,8.51575 8.90271,-1.759176 11.50076,0.485956 22.47882,19.42551 8.65632,14.934014 8.67476,15.05194 2.91276,18.522285 -8.21753,4.949092 -8.19031,3.941362 -0.52552,19.441755 6.92379,14.00149 6.92379,14.00149 10.59887,13.57463 3.6754,-0.42685 3.6754,-0.42685 9.5939,12.30424 l 5.91878,12.73136 -2.43043,2.39415 c -3.00406,2.95929 -4.73521,1.26273 -10.60554,-10.39337 l -3.68602,-7.3187 -14.51154,8.47919 c -7.98159,4.6637 -35.92306,21.06201 -62.09233,36.44092 -51.60541,30.32667 -73.36589,43.04132 -78.6902,45.97839 l -3.41241,1.8825 2.93686,4.68041 c 4.74784,7.56605 55.23415,81.09412 56.89814,82.86574 1.31455,1.39979 1.852,1.41106 3.96411,0.0832 1.34391,-0.84509 29.26885,-17.26072 62.05566,-36.47913 77.78447,-45.59401 79.84781,-46.83044 79.84781,-47.84834 0,-0.47684 -6.64493,-14.29395 -14.76628,-30.70451 -15.9308,-32.1898 -15.87016,-32.02551 -12.49326,-33.83272 4.0469,-2.16594 5.15598,-0.48524 22.01295,33.35284 l 16.62615,33.37436 -2.28984,3.09731 -2.29,3.09732 11.83046,24.34591 c 13.35624,27.48581 14.14716,30.2278 11.31597,39.22886 -3.00325,9.54822 -7.41504,13.05805 -41.43112,32.96044 -16.84458,9.85559 -38.50196,22.626 -48.12729,28.37892 -23.28995,13.91981 -29.24799,15.66181 -40.19956,11.75353 z M 310.88536,171.9894 c 25.74879,-15.10752 58.96857,-34.57846 73.82158,-43.26895 l 27.00549,-15.80113 -2.00508,-4.58485 c -7.31832,-16.734231 -11.11641,-23.91131 -12.3943,-23.420878 -0.77002,0.295439 -33.86987,19.633278 -73.55525,42.972898 -39.68554,23.33966 -73.53396,43.13337 -75.21874,43.98558 -1.68467,0.85219 -2.91529,1.94938 -2.73442,2.4379 0.76219,2.05953 16.80197,25.07234 17.5003,25.10845 0.42036,0.0218 21.83161,-12.3215 47.58042,-27.42902 z m -7.8741,-42.53974 c 73.29532,-43.015039 102.61048,-60.286274 103.24486,-60.827247 0.59145,-0.504489 -13.20981,-24.48516 -14.09156,-24.48516 -2.41881,0 -178.2984,104.307937 -178.2984,105.742297 0,0.83091 2.99079,6.63772 6.64631,12.90394 l 6.64629,11.3935 5.11207,-3.10576 c 2.81151,-1.70831 34.64489,-20.43815 70.74043,-41.62157 z m 59.70591,114.06967 c -9.31569,-3.29055 -21.20631,-19.08528 -24.72113,-32.83795 -5.36977,-21.01071 14.77201,-39.89782 35.97501,-33.73383 14.19221,4.12578 29.12209,26.93685 27.72372,42.35847 -1.71029,18.86083 -20.712,30.66479 -38.9776,24.21331 z m 17.70044,-12.72739 c -0.39653,-6.58406 -3.79519,-10.90661 -12.05961,-15.33752 -10.70352,-5.73859 -17.76633,-13.02847 -17.76633,-18.33698 0,-2.57578 -1.86346,-2.66299 -2.57903,-0.12093 -2.57113,9.13115 -1.21883,14.85194 6.23408,26.37303 6.60233,10.20595 10.01902,12.31651 19.31498,11.93137 l 7.10963,-0.2946 z m 11.24476,-11.14349 c 1.69948,-13.60214 -11.1492,-32.80173 -22.83294,-34.11874 -10.21284,-1.15115 -12.64737,1.49239 -9.08134,9.8612 2.02511,4.75285 5.55981,7.8106 13.44288,11.62936 7.23422,3.50416 14.36016,10.78386 15.34955,15.68069 0.97065,4.80332 2.30302,3.50039 3.12185,-3.05251 z"
       id="path22" />
  </g>
</svg>
